<svg xmlns="http://www.w3.org/2000/svg" width="244" height="32" viewBox="0 0 244 32" fill="none">
<path fill-rule="evenodd" clip-rule="evenodd" d="M16 16C16 7.16444 8.83556 0 0 0V16H16ZM16 16H32V32C23.1644 32 16 24.8356 16 16ZM16 16V0H32C32 8.83556 24.8356 16 16 16ZM16 16V32H0C0 23.1644 7.16444 16 16 16Z" fill="#F80C34"/>
<path d="M42.2816 26L48.8608 6.928H53.3664L59.9456 26H56.1568L54.8 21.904H47.4272L46.0448 26H42.2816ZM48.4256 18.832H53.8016L50.6272 9.3344H51.6L48.4256 18.832ZM61.7866 26V12.0736H64.9354V15.1712L64.6794 14.7104C65.0037 13.6693 65.5071 12.944 66.1898 12.5344C66.8895 12.1248 67.7258 11.92 68.6986 11.92H69.5178V14.8896H68.3146C67.3589 14.8896 66.5909 15.1883 66.0106 15.7856C65.4303 16.3659 65.1402 17.1851 65.1402 18.2432V26H61.7866ZM78.0854 26.1536C76.5153 26.1536 75.295 25.7269 74.4246 24.8736C73.5713 24.0032 73.1446 22.7829 73.1446 21.2128V15.0688H70.7382V12.0736H70.9942C71.6769 12.0736 72.2059 11.8944 72.5814 11.536C72.9569 11.1776 73.1446 10.6571 73.1446 9.9744V8.8992H76.4982V12.0736H79.6982V15.0688H76.4982V21.0336C76.4982 21.4944 76.575 21.8869 76.7286 22.2112C76.8993 22.5355 77.1553 22.7829 77.4966 22.9536C77.855 23.1243 78.3073 23.2096 78.8534 23.2096C78.9729 23.2096 79.1094 23.2011 79.263 23.184C79.4337 23.1669 79.5958 23.1499 79.7494 23.1328V26C79.5105 26.0341 79.2374 26.0683 78.9302 26.1024C78.623 26.1365 78.3414 26.1536 78.0854 26.1536ZM89.9148 26.3072C88.9079 26.3072 87.9777 26.1109 87.1244 25.7184C86.2881 25.3088 85.6225 24.7285 85.1276 23.9776L85.4604 23.312V26H82.3116V6.6208H85.6652V14.8384L85.1532 14.1472C85.6311 13.3963 86.2796 12.816 87.0988 12.4064C87.918 11.9797 88.8652 11.7664 89.9404 11.7664C91.2545 11.7664 92.4407 12.0907 93.4988 12.7392C94.5569 13.3877 95.3932 14.2581 96.0076 15.3504C96.6391 16.4427 96.9548 17.6715 96.9548 19.0368C96.9548 20.3851 96.6476 21.6139 96.0332 22.7232C95.4188 23.8325 94.5825 24.7115 93.5244 25.36C92.4663 25.9915 91.2631 26.3072 89.9148 26.3072ZM89.5308 23.2352C90.2988 23.2352 90.9815 23.056 91.5788 22.6976C92.1761 22.3392 92.6369 21.8443 92.9612 21.2128C93.3025 20.5813 93.4732 19.856 93.4732 19.0368C93.4732 18.2176 93.3025 17.5008 92.9612 16.8864C92.6369 16.2549 92.1761 15.76 91.5788 15.4016C90.9815 15.0261 90.2988 14.8384 89.5308 14.8384C88.7969 14.8384 88.1313 15.0176 87.534 15.376C86.9537 15.7344 86.4929 16.2379 86.1516 16.8864C85.8273 17.5179 85.6652 18.2347 85.6652 19.0368C85.6652 19.856 85.8273 20.5813 86.1516 21.2128C86.4929 21.8443 86.9537 22.3392 87.534 22.6976C88.1313 23.056 88.7969 23.2352 89.5308 23.2352ZM106.321 26.3072C104.956 26.3072 103.71 25.9915 102.584 25.36C101.474 24.7285 100.587 23.8667 99.9212 22.7744C99.2727 21.6821 98.9484 20.4363 98.9484 19.0368C98.9484 17.6373 99.2727 16.3915 99.9212 15.2992C100.587 14.2069 101.474 13.3451 102.584 12.7136C103.693 12.0821 104.939 11.7664 106.321 11.7664C107.687 11.7664 108.924 12.0821 110.033 12.7136C111.143 13.3451 112.021 14.2069 112.67 15.2992C113.336 16.3744 113.668 17.6203 113.668 19.0368C113.668 20.4363 113.336 21.6821 112.67 22.7744C112.004 23.8667 111.117 24.7285 110.008 25.36C108.898 25.9915 107.669 26.3072 106.321 26.3072ZM106.321 23.2352C107.072 23.2352 107.729 23.056 108.292 22.6976C108.873 22.3392 109.325 21.8443 109.649 21.2128C109.991 20.5643 110.161 19.8389 110.161 19.0368C110.161 18.2176 109.991 17.5008 109.649 16.8864C109.325 16.2549 108.873 15.76 108.292 15.4016C107.729 15.0261 107.072 14.8384 106.321 14.8384C105.553 14.8384 104.879 15.0261 104.299 15.4016C103.719 15.76 103.258 16.2549 102.916 16.8864C102.592 17.5008 102.43 18.2176 102.43 19.0368C102.43 19.8389 102.592 20.5643 102.916 21.2128C103.258 21.8443 103.719 22.3392 104.299 22.6976C104.879 23.056 105.553 23.2352 106.321 23.2352ZM120.436 26.3072C119.463 26.3072 118.618 26.1451 117.901 25.8208C117.184 25.4965 116.63 25.0357 116.237 24.4384C115.845 23.824 115.648 23.1157 115.648 22.3136C115.648 21.5456 115.819 20.8629 116.16 20.2656C116.502 19.6512 117.031 19.1392 117.748 18.7296C118.464 18.32 119.369 18.0299 120.461 17.8592L125.018 17.1168V19.6768L121.101 20.3424C120.436 20.4619 119.941 20.6752 119.616 20.9824C119.292 21.2896 119.13 21.6907 119.13 22.1856C119.13 22.6635 119.309 23.0475 119.668 23.3376C120.043 23.6107 120.504 23.7472 121.05 23.7472C121.75 23.7472 122.364 23.6021 122.893 23.312C123.439 23.0048 123.857 22.5867 124.148 22.0576C124.455 21.5285 124.608 20.9483 124.608 20.3168V16.7328C124.608 16.1355 124.369 15.6405 123.892 15.248C123.431 14.8384 122.816 14.6336 122.048 14.6336C121.332 14.6336 120.692 14.8299 120.128 15.2224C119.582 15.5979 119.181 16.1013 118.925 16.7328L116.186 15.4016C116.459 14.6677 116.886 14.0363 117.466 13.5072C118.063 12.9611 118.763 12.5344 119.565 12.2272C120.367 11.92 121.238 11.7664 122.176 11.7664C123.32 11.7664 124.327 11.9797 125.197 12.4064C126.068 12.816 126.742 13.3963 127.22 14.1472C127.715 14.8811 127.962 15.7429 127.962 16.7328V26H124.788V23.6192L125.504 23.568C125.146 24.1653 124.719 24.6688 124.224 25.0784C123.729 25.4709 123.166 25.7781 122.535 26C121.903 26.2048 121.204 26.3072 120.436 26.3072ZM131.062 26V12.0736H134.21V15.1712L133.954 14.7104C134.279 13.6693 134.782 12.944 135.465 12.5344C136.165 12.1248 137.001 11.92 137.974 11.92H138.793V14.8896H137.59C136.634 14.8896 135.866 15.1883 135.286 15.7856C134.705 16.3659 134.415 17.1851 134.415 18.2432V26H131.062ZM147.113 26.3072C145.765 26.3072 144.562 25.9915 143.504 25.36C142.446 24.7115 141.609 23.8325 140.995 22.7232C140.381 21.6139 140.073 20.3851 140.073 19.0368C140.073 17.6715 140.381 16.4427 140.995 15.3504C141.609 14.2581 142.446 13.3877 143.504 12.7392C144.579 12.0907 145.774 11.7664 147.088 11.7664C148.146 11.7664 149.085 11.9797 149.904 12.4064C150.74 12.816 151.397 13.3963 151.875 14.1472L151.363 14.8384V6.6208H154.717V26H151.542V23.312L151.901 23.9776C151.423 24.7285 150.757 25.3088 149.904 25.7184C149.05 26.1109 148.12 26.3072 147.113 26.3072ZM147.472 23.2352C148.24 23.2352 148.914 23.056 149.494 22.6976C150.074 22.3392 150.527 21.8443 150.851 21.2128C151.192 20.5813 151.363 19.856 151.363 19.0368C151.363 18.2347 151.192 17.5179 150.851 16.8864C150.527 16.2379 150.074 15.7344 149.494 15.376C148.914 15.0176 148.24 14.8384 147.472 14.8384C146.721 14.8384 146.047 15.0261 145.449 15.4016C144.852 15.76 144.383 16.2549 144.041 16.8864C143.717 17.5008 143.555 18.2176 143.555 19.0368C143.555 19.856 143.717 20.5813 144.041 21.2128C144.383 21.8443 144.852 22.3392 145.449 22.6976C146.047 23.056 146.721 23.2352 147.472 23.2352ZM169.478 26.3072C168.266 26.3072 167.14 26.0853 166.099 25.6416C165.075 25.1979 164.187 24.5835 163.436 23.7984C162.702 22.9963 162.165 22.0661 161.823 21.008L164.716 19.7536C165.177 20.8459 165.843 21.7077 166.713 22.3392C167.583 22.9536 168.565 23.2608 169.657 23.2608C170.271 23.2608 170.8 23.1669 171.244 22.9792C171.705 22.7744 172.055 22.5013 172.294 22.16C172.55 21.8187 172.678 21.4091 172.678 20.9312C172.678 20.368 172.507 19.9072 172.166 19.5488C171.842 19.1733 171.347 18.8832 170.681 18.6784L167.02 17.5008C165.535 17.04 164.418 16.3488 163.667 15.4272C162.916 14.5056 162.54 13.4219 162.54 12.176C162.54 11.0837 162.805 10.1195 163.334 9.2832C163.88 8.44693 164.631 7.7984 165.587 7.3376C166.559 6.85973 167.669 6.6208 168.915 6.6208C170.058 6.6208 171.108 6.8256 172.063 7.2352C173.019 7.62773 173.838 8.1824 174.521 8.8992C175.221 9.59893 175.741 10.4267 176.083 11.3824L173.215 12.6624C172.84 11.7067 172.277 10.9728 171.526 10.4608C170.775 9.93173 169.904 9.6672 168.915 9.6672C168.334 9.6672 167.822 9.7696 167.379 9.9744C166.935 10.1621 166.585 10.4352 166.329 10.7936C166.09 11.1349 165.971 11.5445 165.971 12.0224C165.971 12.5515 166.141 13.0208 166.483 13.4304C166.824 13.8229 167.344 14.1301 168.044 14.352L171.551 15.4528C173.07 15.9477 174.205 16.6304 174.956 17.5008C175.724 18.3712 176.108 19.4464 176.108 20.7264C176.108 21.8187 175.827 22.7829 175.263 23.6192C174.7 24.4555 173.924 25.1125 172.934 25.5904C171.944 26.0683 170.792 26.3072 169.478 26.3072ZM185.31 26.1536C183.74 26.1536 182.52 25.7269 181.65 24.8736C180.796 24.0032 180.37 22.7829 180.37 21.2128V15.0688H177.963V12.0736H178.219C178.902 12.0736 179.431 11.8944 179.806 11.536C180.182 11.1776 180.37 10.6571 180.37 9.9744V8.8992H183.723V12.0736H186.923V15.0688H183.723V21.0336C183.723 21.4944 183.8 21.8869 183.954 22.2112C184.124 22.5355 184.38 22.7829 184.722 22.9536C185.08 23.1243 185.532 23.2096 186.078 23.2096C186.198 23.2096 186.334 23.2011 186.488 23.184C186.659 23.1669 186.821 23.1499 186.974 23.1328V26C186.735 26.0341 186.462 26.0683 186.155 26.1024C185.848 26.1365 185.566 26.1536 185.31 26.1536ZM194.503 26.3072C193.428 26.3072 192.489 26.0683 191.687 25.5904C190.902 25.1125 190.296 24.4469 189.869 23.5936C189.46 22.7403 189.255 21.7419 189.255 20.5984V12.0736H192.609V20.3168C192.609 20.8971 192.72 21.4091 192.941 21.8528C193.18 22.2795 193.513 22.6208 193.94 22.8768C194.384 23.1157 194.878 23.2352 195.425 23.2352C195.971 23.2352 196.457 23.1157 196.884 22.8768C197.31 22.6208 197.643 22.2709 197.882 21.8272C198.121 21.3835 198.241 20.8544 198.241 20.24V12.0736H201.594V26H198.42V23.2608L198.701 23.7472C198.377 24.6005 197.84 25.2405 197.089 25.6672C196.355 26.0939 195.493 26.3072 194.503 26.3072ZM211.188 26.3072C209.84 26.3072 208.637 25.9915 207.579 25.36C206.521 24.7115 205.684 23.8325 205.07 22.7232C204.456 21.6139 204.148 20.3851 204.148 19.0368C204.148 17.6715 204.456 16.4427 205.07 15.3504C205.684 14.2581 206.521 13.3877 207.579 12.7392C208.654 12.0907 209.849 11.7664 211.163 11.7664C212.221 11.7664 213.16 11.9797 213.979 12.4064C214.815 12.816 215.472 13.3963 215.95 14.1472L215.438 14.8384V6.6208H218.792V26H215.617V23.312L215.976 23.9776C215.498 24.7285 214.832 25.3088 213.979 25.7184C213.125 26.1109 212.195 26.3072 211.188 26.3072ZM211.547 23.2352C212.315 23.2352 212.989 23.056 213.569 22.6976C214.149 22.3392 214.602 21.8443 214.926 21.2128C215.267 20.5813 215.438 19.856 215.438 19.0368C215.438 18.2347 215.267 17.5179 214.926 16.8864C214.602 16.2379 214.149 15.7344 213.569 15.376C212.989 15.0176 212.315 14.8384 211.547 14.8384C210.796 14.8384 210.122 15.0261 209.524 15.4016C208.927 15.76 208.458 16.2549 208.116 16.8864C207.792 17.5008 207.63 18.2176 207.63 19.0368C207.63 19.856 207.792 20.5813 208.116 21.2128C208.458 21.8443 208.927 22.3392 209.524 22.6976C210.122 23.056 210.796 23.2352 211.547 23.2352ZM221.912 26V12.0736H225.265V26H221.912ZM221.912 10.512V6.928H225.265V10.512H221.912ZM235.171 26.3072C233.806 26.3072 232.56 25.9915 231.434 25.36C230.324 24.7285 229.437 23.8667 228.771 22.7744C228.123 21.6821 227.798 20.4363 227.798 19.0368C227.798 17.6373 228.123 16.3915 228.771 15.2992C229.437 14.2069 230.324 13.3451 231.434 12.7136C232.543 12.0821 233.789 11.7664 235.171 11.7664C236.537 11.7664 237.774 12.0821 238.883 12.7136C239.993 13.3451 240.871 14.2069 241.52 15.2992C242.186 16.3744 242.518 17.6203 242.518 19.0368C242.518 20.4363 242.186 21.6821 241.52 22.7744C240.854 23.8667 239.967 24.7285 238.858 25.36C237.748 25.9915 236.519 26.3072 235.171 26.3072ZM235.171 23.2352C235.922 23.2352 236.579 23.056 237.142 22.6976C237.723 22.3392 238.175 21.8443 238.499 21.2128C238.841 20.5643 239.011 19.8389 239.011 19.0368C239.011 18.2176 238.841 17.5008 238.499 16.8864C238.175 16.2549 237.723 15.76 237.142 15.4016C236.579 15.0261 235.922 14.8384 235.171 14.8384C234.403 14.8384 233.729 15.0261 233.149 15.4016C232.569 15.76 232.108 16.2549 231.766 16.8864C231.442 17.5008 231.28 18.2176 231.28 19.0368C231.28 19.8389 231.442 20.5643 231.766 21.2128C232.108 21.8443 232.569 22.3392 233.149 22.6976C233.729 23.056 234.403 23.2352 235.171 23.2352Z" fill="#091B22"/>
</svg>
